<?xml version="1.0" standalone="no"?>
<!DOCTYPE svg PUBLIC "-//W3C//DTD SVG 20010904//EN"
 "http://www.w3.org/TR/2001/REC-SVG-20010904/DTD/svg10.dtd">
<svg version="1.0" xmlns="http://www.w3.org/2000/svg"
 width="338.000000pt" height="338.000000pt" viewBox="0 0 338.000000 338.000000"
 preserveAspectRatio="xMidYMid meet">

<g transform="translate(0.000000,338.000000) scale(0.100000,-0.100000)"
fill="#000000" stroke="none">
<path d="M0 1690 l0 -1690 1690 0 1690 0 0 1690 0 1690 -1690 0 -1690 0 0
-1690z m1990 1291 c124 -26 264 -84 364 -151 l46 -31 -1 -267 c0 -180 3 -268
10 -270 8 -3 11 -174 11 -558 0 -539 -1 -554 -19 -554 -20 0 -27 26 -52 219
-16 128 -38 159 -115 171 l-46 7 6 -30 c3 -16 6 -36 6 -43 0 -8 5 -14 11 -14
6 0 9 7 5 15 -7 21 17 19 43 -3 19 -14 25 -39 42 -164 10 -81 24 -159 29 -173
6 -15 10 -28 10 -30 0 -2 -17 -9 -37 -16 -20 -6 -46 -22 -57 -34 l-21 -23 3
194 c3 161 1 194 -10 194 -27 0 -38 -106 -22 -211 8 -52 14 -133 14 -181 l0
-88 229 0 228 0 2 -72 c1 -40 6 -134 10 -208 5 -74 6 -139 2 -143 -15 -16 -41
6 -47 41 -11 64 -23 71 -24 15 l0 -53 -40 0 c-37 0 -40 2 -41 28 -1 15 -5 38
-9 52 -7 19 -8 11 -7 -30 l2 -55 -35 0 -35 0 -4 55 -5 55 -5 -54 c-5 -42 -10
-55 -24 -57 -23 -3 -37 25 -37 75 0 67 -19 57 -22 -11 l-3 -63 -47 -3 -48 -3
-1 48 c-1 51 -4 49 -13 -8 l-7 -37 -232 2 c-224 1 -233 0 -249 -20 -11 -14
-26 -20 -45 -18 -209 24 -510 44 -722 48 -211 4 -268 8 -279 20 -22 22 -5 36
46 37 26 0 65 4 87 8 l40 9 -55 1 c-94 3 -190 17 -202 29 -24 24 10 42 81 43
l66 2 -79 11 c-86 12 -112 30 -86 61 12 14 28 16 109 11 l96 -5 -84 17 c-87
18 -118 39 -94 63 9 9 44 9 148 0 75 -7 139 -10 142 -8 3 3 -9 13 -26 22 -18
9 -31 23 -31 35 0 35 35 32 121 -10 45 -22 89 -40 96 -40 7 0 40 -11 73 -24
32 -13 74 -27 92 -30 l33 -6 -35 16 c-44 20 -240 137 -297 177 -25 18 -48 27
-58 23 -9 -3 -14 -2 -11 3 3 5 -1 14 -9 21 -16 13 -9 40 11 40 7 0 28 -9 45
-19 17 -11 37 -17 44 -15 7 3 16 1 20 -5 3 -6 11 -11 17 -11 6 0 -6 14 -27 30
-23 18 -45 28 -54 25 -8 -3 -12 -3 -8 1 4 4 -13 20 -38 36 -76 47 -52 93 28
52 18 -9 43 -25 56 -35 32 -25 49 -24 26 1 -10 11 -22 20 -27 20 -4 0 -30 16
-58 36 -53 38 -66 72 -31 81 18 4 16 11 -23 71 -83 132 -132 255 -161 407 -23
116 -16 332 14 448 55 211 154 382 302 522 162 152 321 239 524 286 115 26
337 27 465 0z m646 -419 c72 -94 149 -256 180 -379 34 -136 43 -335 20 -453
-42 -208 -114 -363 -246 -524 -40 -50 -49 -55 -80 -53 l-35 2 -3 553 c-1 366
1 552 8 552 6 0 10 84 10 235 l0 235 45 -48 c25 -26 71 -80 101 -120z m-199
-364 c-3 -7 -5 -2 -5 12 0 14 2 19 5 13 2 -7 2 -19 0 -25z m0 -700 c-1 -128
-2 -26 -2 227 0 253 1 358 2 233 2 -125 2 -332 0 -460z"/>
<path d="M1590 2703 c-34 -17 -68 -45 -89 -73 -19 -25 -38 -44 -43 -42 -5 1
-7 -1 -4 -6 3 -5 -6 -35 -19 -68 -31 -78 -57 -205 -53 -268 4 -93 -35 -320
-77 -444 -3 -7 -5 -14 -5 -17 -2 -15 -86 -152 -99 -161 -13 -10 -13 -14 -1
-29 12 -15 11 -16 -15 -9 -21 5 -26 4 -20 -5 4 -7 18 -11 31 -8 16 3 24 0 24
-10 0 -7 -13 -16 -30 -19 -23 -5 -30 -12 -29 -28 1 -17 2 -17 6 -3 5 19 33 24
33 5 0 -7 7 0 16 17 8 16 22 37 30 46 13 15 13 17 0 22 -11 4 -13 1 -9 -11 6
-15 4 -15 -10 -4 -8 8 -13 20 -10 28 6 17 8 17 33 2 17 -11 24 -8 55 23 35 34
35 36 20 65 -17 33 -20 91 -5 96 6 2 11 18 13 36 l2 33 18 -22 c13 -17 17 -18
17 -5 0 9 -5 16 -10 16 -12 0 -10 69 2 76 4 3 8 -5 9 -18 1 -13 2 -30 3 -38 2
-8 4 -28 5 -45 l3 -30 8 30 c12 45 11 77 0 70 -7 -4 -9 6 -7 29 2 19 0 33 -4
30 -12 -7 -11 39 2 73 6 15 12 61 15 102 2 41 9 78 15 82 8 5 8 8 0 10 -6 2
55 2 136 1 82 -2 149 -5 150 -5 1 -1 4 -49 7 -107 6 -103 29 -234 45 -255 5
-5 11 -28 15 -50 6 -35 13 -56 46 -140 5 -11 16 -42 26 -70 10 -27 21 -55 26
-62 5 -7 5 -14 -2 -18 -5 -3 -10 -1 -10 6 0 7 -2 10 -5 8 -2 -3 -2 -15 2 -27
4 -17 9 -20 18 -12 9 7 15 7 19 1 4 -5 2 -12 -4 -16 -17 -10 -12 -38 6 -31 8
3 12 2 9 -3 -3 -5 -1 -13 5 -16 6 -4 26 10 45 30 34 35 36 36 101 34 51 -2 71
-7 83 -21 23 -27 28 -23 35 31 4 27 11 51 17 53 5 2 -11 28 -36 57 -26 30 -57
75 -69 100 -31 61 -74 241 -91 378 -4 31 -11 52 -18 50 -7 -1 -14 16 -17 38
-4 33 -9 41 -30 43 -14 2 -29 8 -35 13 -5 5 -110 9 -233 9 l-225 0 7 63 c9 74
47 193 82 253 46 78 119 120 185 107 44 -8 107 -69 140 -135 33 -66 69 -192
69 -245 0 -26 4 -33 20 -33 18 0 20 7 20 63 0 146 -94 330 -197 385 -10 6 -38
13 -63 17 -38 5 -54 2 -100 -22z m-294 -1004 c-5 -27 -4 -30 9 -19 29 24 26 3
-4 -29 -19 -20 -35 -29 -45 -25 -9 4 -16 9 -14 13 42 93 66 120 54 60z m832
-88 c1 -1 2 -14 2 -31 l0 -30 -80 0 -80 0 0 28 c0 16 3 32 7 36 6 5 122 3 151
-3z"/>
<path d="M1267 1655 c-4 -8 -2 -17 3 -20 6 -4 10 -4 10 -1 0 2 3 11 6 20 3 9
2 16 -4 16 -5 0 -12 -7 -15 -15z"/>
<path d="M1420 2206 c-7 -10 -8 -21 -2 -32 8 -15 10 -15 15 0 5 13 25 16 127
16 78 0 119 -4 115 -10 -3 -5 -1 -18 5 -27 9 -15 10 -13 8 12 l-3 30 -128 0
c-98 0 -126 3 -122 13 6 16 0 15 -15 -2z"/>
<path d="M1498 2213 c29 -2 74 -2 100 0 26 2 2 3 -53 3 -55 0 -76 -1 -47 -3z"/>
<path d="M1668 2213 c7 -3 16 -2 19 1 4 3 -2 6 -13 5 -11 0 -14 -3 -6 -6z"/>
<path d="M1488 2173 c23 -2 61 -2 85 0 23 2 4 4 -43 4 -47 0 -66 -2 -42 -4z"/>
<path d="M1430 2115 c0 -17 -2 -18 -10 -5 -12 18 -12 2 0 -25 7 -16 9 -17 9
-3 1 9 7 18 14 21 10 4 10 7 0 18 -11 11 -13 10 -13 -6z"/>
<path d="M1672 2115 c-7 -8 -8 -15 -3 -15 5 0 11 -8 14 -17 2 -10 4 -3 4 15 0
17 0 32 -1 32 -1 -1 -7 -7 -14 -15z"/>
<path d="M1421 2028 c-1 -21 4 -38 9 -38 12 0 12 27 0 55 -7 16 -9 13 -9 -17z"/>
<path d="M1468 1915 c2 -14 6 -25 8 -25 2 0 4 11 4 25 0 14 -4 25 -9 25 -4 0
-6 -11 -3 -25z"/>
<path d="M1495 1908 c4 -24 1 -38 -7 -41 -7 -2 -10 -8 -6 -12 11 -12 40 16 33
33 -5 13 -3 13 11 1 14 -11 15 -10 12 16 -3 32 -28 47 -29 18 0 -16 -1 -16
-10 2 -7 15 -8 11 -4 -17z"/>
<path d="M1600 1920 c0 -19 3 -21 12 -12 9 9 9 15 0 24 -9 9 -12 7 -12 -12z"/>
<path d="M1707 1901 c-4 -19 -5 -36 -2 -39 10 -11 16 7 13 40 l-3 33 -8 -34z"/>
<path d="M1511 1813 l0 -48 15 45 c7 25 14 46 14 48 0 1 -7 2 -15 2 -11 0 -15
-12 -14 -47z"/>
<path d="M1588 1844 c-5 -4 -8 -21 -8 -38 0 -21 3 -27 11 -19 6 6 9 23 7 38
-2 15 -6 23 -10 19z"/>
<path d="M1341 1814 c0 -11 3 -14 6 -6 3 7 2 16 -1 19 -3 4 -6 -2 -5 -13z"/>
<path d="M1477 1794 c-3 -11 -9 -41 -13 -69 -3 -27 -11 -57 -17 -65 -9 -12 -9
-13 3 -2 21 18 30 15 30 -13 0 -14 5 -25 10 -25 12 0 2 52 -12 61 -10 7 1 91
13 99 4 3 4 12 0 19 -7 11 -10 10 -14 -5z"/>
<path d="M1342 1782 c-10 -7 -8 -13 7 -30 l19 -22 5 22 c9 34 -4 47 -31 30z"/>
<path d="M1511 1734 c0 -11 3 -14 6 -6 3 7 2 16 -1 19 -3 4 -6 -2 -5 -13z"/>
<path d="M1490 1715 c0 -14 4 -25 9 -25 4 0 6 11 3 25 -2 14 -6 25 -8 25 -2 0
-4 -11 -4 -25z"/>
<path d="M1770 1688 c0 -13 -3 -34 -6 -48 -5 -23 -5 -23 10 4 18 32 21 66 6
66 -5 0 -10 -10 -10 -22z"/>
<path d="M1512 1650 c0 -14 2 -19 5 -12 2 6 2 18 0 25 -3 6 -5 1 -5 -13z"/>
<path d="M1580 1646 c0 -8 5 -18 10 -21 6 -3 10 3 10 14 0 12 -4 21 -10 21 -5
0 -10 -6 -10 -14z"/>
<path d="M1450 1630 c0 -5 5 -10 11 -10 5 0 7 5 4 10 -3 6 -8 10 -11 10 -2 0
-4 -4 -4 -10z"/>
<path d="M1396 1576 c-14 -19 -32 -40 -39 -48 -21 -21 -39 -58 -28 -58 5 0 12
6 14 13 3 6 3 -3 0 -22 -6 -31 -5 -33 9 -20 12 10 13 20 6 38 -7 19 -4 29 13
47 12 13 26 21 32 17 6 -3 7 -1 3 5 -4 7 -1 21 7 33 11 15 16 17 20 7 4 -9 6
-9 6 -1 2 26 -18 21 -43 -11z"/>
<path d="M1420 1561 c0 -6 4 -13 10 -16 6 -3 7 1 4 9 -7 18 -14 21 -14 7z"/>
<path d="M1053 1528 c-36 -17 -62 -84 -65 -167 -3 -65 -1 -75 18 -87 21 -14
21 -13 32 72 13 96 29 130 67 140 18 4 25 13 25 30 0 20 -5 24 -27 23 -16 0
-38 -5 -50 -11z"/>
<path d="M1178 1503 c-4 -14 0 -24 8 -27 15 -6 16 -1 5 28 -7 19 -8 19 -13 -1z"/>
<path d="M1806 1477 c1 -9 -3 -17 -9 -16 -22 3 -37 -1 -37 -9 0 -4 21 -8 47
-7 41 0 48 -3 48 -20 0 -19 -8 -20 -237 -23 -157 -1 -238 1 -238 8 0 5 -4 10
-10 10 -5 0 -6 -7 -3 -17 4 -10 2 -14 -4 -10 -7 5 -11 -10 -10 -43 1 -29 7
-52 15 -55 6 -2 12 -9 12 -15 0 -6 -6 -8 -12 -4 -10 6 -10 4 0 -7 8 -8 12 -47
12 -114 0 -60 -4 -95 -9 -86 -5 7 -6 22 -4 32 3 10 2 26 -1 35 -5 13 -9 14
-21 4 -8 -7 -22 -10 -30 -6 -23 9 -4 -23 37 -59 18 -16 39 -42 47 -58 17 -32
47 -56 201 -159 l115 -77 6 182 c8 237 28 297 136 418 21 24 32 39 24 34 -11
-6 -13 -4 -8 7 5 14 -28 57 -39 51 -10 -7 -23 -2 -27 10 -2 6 -3 4 -1 -6z
m-446 -341 c0 -2 -8 -10 -17 -17 -16 -13 -17 -12 -4 4 13 16 21 21 21 13z"/>
<path d="M1151 1450 c1 -25 3 -38 6 -30 2 8 7 22 9 30 5 13 6 13 15 0 7 -10 9
-11 7 -2 -2 8 -8 13 -13 12 -5 -1 -12 7 -16 17 -5 11 -8 1 -8 -27z"/>
<path d="M1370 1470 c0 -5 5 -10 11 -10 8 0 8 -5 -1 -15 -9 -10 -9 -15 -1 -15
6 0 11 3 12 8 0 4 2 15 4 25 2 9 -3 17 -11 17 -8 0 -14 -4 -14 -10z"/>
<path d="M1116 1378 c-7 -113 -6 -148 4 -148 5 0 7 11 6 24 -2 17 1 23 10 19
10 -4 14 4 14 27 0 21 -4 29 -12 24 -8 -5 -10 11 -5 64 3 39 2 74 -3 77 -4 3
-11 -37 -14 -87z"/>
<path d="M1311 1433 c-1 -17 4 -35 9 -38 12 -7 12 22 0 50 -7 17 -9 15 -9 -12z"/>
<path d="M1420 1450 c0 -5 5 -10 11 -10 5 0 7 5 4 10 -3 6 -8 10 -11 10 -2 0
-4 -4 -4 -10z"/>
<path d="M1410 1420 c-12 -8 -10 -9 7 -7 12 2 26 6 29 10 11 11 -19 8 -36 -3z"/>
<path d="M1643 1423 c26 -2 68 -2 95 0 26 2 4 3 -48 3 -52 0 -74 -1 -47 -3z"/>
<path d="M1170 1391 c0 -8 -7 -11 -17 -6 -15 5 -16 4 -5 -6 9 -10 15 -10 24
-1 6 6 9 15 5 19 -4 3 -7 1 -7 -6z"/>
<path d="M1301 1360 c-1 -33 -47 -130 -61 -130 -6 0 -8 -5 -4 -11 4 -8 9 -7
15 2 4 8 14 14 21 14 7 0 13 7 13 15 1 8 7 36 14 62 7 25 11 52 8 60 -3 7 -6
2 -6 -12z"/>
<path d="M1868 1288 c-95 -131 -122 -220 -68 -226 58 -7 135 86 147 178 5 38
-12 110 -26 110 -4 0 -28 -28 -53 -62z"/>
<path d="M1168 1317 c-3 -19 -2 -25 4 -19 6 6 8 18 6 28 -3 14 -5 12 -10 -9z"/>
<path d="M1330 1324 c0 -8 -4 -12 -10 -9 -5 3 -10 1 -10 -4 0 -6 7 -11 15 -11
8 0 15 9 15 20 0 11 -2 20 -5 20 -3 0 -5 -7 -5 -16z"/>
<path d="M1151 1259 c-7 -12 -7 -19 -1 -19 5 0 10 4 10 9 0 5 10 11 23 13 22
3 22 4 1 9 -14 4 -25 0 -33 -12z"/>
<path d="M960 1222 c0 -13 35 -42 50 -42 9 0 5 9 -10 25 -24 25 -40 32 -40 17z"/>
<path d="M1140 1220 c0 -5 4 -10 10 -10 5 0 7 -6 4 -14 -3 -7 6 -20 19 -29
l25 -16 -22 39 c-20 38 -36 51 -36 30z"/>
<path d="M1110 1216 c0 -2 7 -9 15 -16 13 -11 14 -10 9 4 -5 14 -24 23 -24 12z"/>
<path d="M1262 1207 c-13 -16 5 -41 37 -52 17 -5 22 -4 18 6 -2 8 -10 13 -16
11 -20 -4 -42 23 -28 37 6 6 8 11 5 11 -3 0 -10 -6 -16 -13z"/>
</g>
</svg>
